<?xml version="1.0" encoding="UTF-8"?>
<svg id="Layer_2" data-name="Layer 2" xmlns="http://www.w3.org/2000/svg" viewBox="0 0 90.27 120.54">
  <defs>
    <style>
      .cls-1 {
        fill: #00636a;
      }
    </style>
  </defs>
  <g id="Layer_1-2" data-name="Layer 1">
    <g>
      <path class="cls-1" d="m52.74.23c0,9.16,0,18.31.03,27.47,0,.99-.35,2-.21,2.92.26,1.68.49,3.39,1.99,4.66,1.69,1.43,3.43,2.47,5.72,2.47,9.54-.02,19.07.02,28.61-.02,1.1,0,1.39.29,1.39,1.38-.06,22.25-.05,44.5-.16,66.75-.02,4.33-1.92,7.89-5.29,10.69-1.71,1.42-3.6,2.46-5.65,3.21-1.77.65-3.7.75-5.54.76-17.04.06-34.07,0-51.11-.02-3.13,0-6.27.17-9.38-.22-2.19-.27-4.26-1.05-6.12-2.38-2.21-1.57-4.08-3.4-5.22-5.87-1.12-2.44-1.8-5.01-1.8-7.73,0-29.83-.06-59.66.05-89.49.02-5.3,2.8-9.37,7.25-12.28,1.98-1.29,4.22-1.95,6.47-2.37,1.08-.2,2.33-.04,3.5-.04,9.87,0,19.74,0,29.6,0,1.87,0,3.73-.06,5.6-.09.08.08.17.15.25.23Zm-10.21,97.65c.11,0,.21,0,.32,0,1.95-.02,3.9-.02,5.85-.07,2.72-.07,4.1-1.73,4.1-4.43,0-2.07-.04-4.14,0-6.22.02-1.36-.58-3.14.21-3.96.87-.9,2.67-.19,4.06-.24,2.66-.11,5.33.31,7.98-.4,1.55-.42,2.61-1.38,2.66-3.34.06-2.44.06-4.89,0-7.33-.04-1.48-.41-2.88-1.93-3.56-.81-.36-1.7-.56-2.61-.56-2.81.02-5.63.03-8.44.08-1.62.03-1.94-.26-1.94-1.89,0-2.86.12-5.73-.03-8.58-.14-2.64-.47-3.87-3.1-4.45-2.73-.59-5.52-.27-8.28-.19-.97.03-1.92.41-2.67,1.16-.86.85-1.11,1.9-1.12,3.03-.03,3.27-.03,6.55-.05,9.82,0,.28.33.84-.42.72-.09-.24-.26-.4-.53-.38-.28.03-.23.26-.23.45-.65.04-1.29.07-1.94.11-.11,0-.23,0-.34,0l-7.14.12c-.11-.1-.21-.09-.31.02-2.09.1-4.13,1.3-4.08,4.07.04,2.31-.08,4.63,0,6.94.12,3.42,2.04,3.97,4.55,4.13,2.92.18,5.87.04,8.8.05,1.65,0,1.65,0,1.66,1.74.01,3.14.02,6.28.04,9.42,0,.39.03.78.2,1.18.91,2.15,2.7,2.55,4.74,2.53Z"/>
      <path class="cls-1" d="m89.62,30.12c-8.12,0-16.24,0-24.36,0-1.41,0-2.82.03-4.22.05-.52,0-.82-.1-.82-.76.04-9.56.05-19.13.07-28.69,0-.03.03-.07.15-.29,9.82,9.82,19.59,19.6,29.37,29.37-.06.1-.12.21-.17.31Z"/>
    </g>
  </g>
</svg>