<?xml version="1.0" encoding="UTF-8"?>
<svg id="Layer_2" data-name="Layer 2" xmlns="http://www.w3.org/2000/svg" viewBox="0 0 124.12 120.13">
  <defs>
    <style>
      .cls-1 {
        fill: #00636a;
      }
    </style>
  </defs>
  <g id="Layer_1-2" data-name="Layer 1">
    <path class="cls-1" d="m123.69,41.44c-.67-4.06-2.52-7.39-5.52-10.14-.12-.29-.42-.37-.64-.54-5.63-4.72-12.13-5.39-18.76-3.2-5.53,1.83-9.4,5.84-11.2,11.58-1.18,3.79-1.35,7.6-.06,11.38,1.73,5.04,4.89,8.92,9.76,11.25.53.26.74.46.73,1.04-.03,5.3-.08,10.6,0,15.9.02,1.34-.2,2.68-.42,3.92-.24,1.4-.55,2.88-1.02,4.3-.94,2.84-2.18,5.46-4.09,7.76-2.1,2.53-4.55,4.63-7.26,6.52-3.58,2.51-7.51,3.73-11.8,3.94-2.67.13-5.29-.22-7.94-.69-4.19-.75-7.69-2.72-10.91-5.33-1.61-1.3-2.98-2.85-4.29-4.44-1.12-1.85-2.28-3.66-3.19-5.64-.75-1.62-1.11-3.34-1.64-5.02.19-.48-.13-.87-.2-1.31-.08-.5-.08-1.01.6-1.12,2.14-.36,4.1-1.21,6.1-2.02,6.63-2.67,12.2-6.67,16.16-12.71,3.6-4.81,5.65-10.23,6.45-16.16.42-2.21.67-4.45.67-6.7.02-8.45,0-16.9.01-25.34,0-1.77,0-3.52-.39-5.27-.97-4.33-3.58-7.43-7.27-9.67-2.93-1.78-6.31-2.37-9.52-3.43-2.96-.98-7.17.62-8.65,4.8-1.03,2.92-.09,5.95,2.2,7.81,1.81,1.47,4.02,2.11,6.17,2.7,2.15.59,2.4.63,2.38,2.89-.1,10,.19,20-.16,30-.54,2.34-1.1,4.67-2.13,6.86-.89,1.31-1.71,2.67-2.7,3.91-1.46,1.82-3.24,3.31-5.24,4.53-3.77,2.3-7.69,4.07-12.27,3.86-1.6-.07-3.18-.26-4.75-.53-2.92-.51-5.7-1.52-8.1-3.25-2.72-1.96-4.96-4.45-6.71-7.32-1.55-2.53-2.8-5.29-2.95-8.23-.51-10.3-.05-20.62-.29-30.94-.02-.7.23-1.02.91-1.23,1.74-.54,3.46-1.19,5.19-1.77,2.46-.83,3.97-2.53,4.76-4.98C27.36,4.51,22.79-1.14,17.45.23c-.9.23-1.8.48-2.69.76-2.56.82-5.24,1.29-7.51,2.91C2.78,7.09.13,11.18.08,16.84c-.1,10.44-.16,20.88.12,31.31.01.48.21.87.3,1.3.08,2.12.62,4.14,1.21,6.16,1.29,4.36,3.36,8.3,6.15,11.88,2.42,3.39,5.37,6.24,8.8,8.57,3.8,2.59,7.97,4.43,12.47,5.43,1.12.25,1.51.73,1.49,1.91-.02.93.06,1.94.48,2.84,0,.33-.09.68-.01.99,1.28,5.15,3.14,10.06,6.18,14.46,2.71,4.3,6.22,7.82,10.35,10.75,3.38,2.4,7.08,4.2,10.96,5.6,1.93.69,3.98,1.07,5.99,1.52,2.96.66,5.97.59,8.97.48,2.98-.11,5.91-.71,8.78-1.48,3.66-.98,7.05-2.56,10.39-4.36,2.05-1.11,3.92-2.46,5.71-3.88,1.69-1.34,3.09-3.06,4.48-4.73.8-.96,1.75-1.87,2.09-3.15,1.38-1.42,2.22-3.19,3.18-4.89,1.37-2.45,2.35-5.08,3.13-7.74.52-1.78.84-3.69,1.13-5.57.42-.89-.13-1.77-.01-2.68.4-2.97.57-5.96.5-8.95-.08-3.25.31-6.51-.24-9.75-.11-.69.33-.9.84-1.17,2.01-1.07,3.89-2.32,5.42-4.05,2.62-2.24,3.73-5.34,4.69-8.48.78-2.55.49-5.13.05-7.75Zm-18.43,11c-4.32.54-7.9-3.97-7.54-7.97.29-3.17,3.16-7.23,7.91-6.94,4.01.25,7.36,2.75,7.33,7.95-.03,3.94-3.88,7.31-7.69,6.96Z"/>
  </g>
</svg>