<?xml version="1.0" encoding="UTF-8"?>
<svg id="Layer_2" data-name="Layer 2" xmlns="http://www.w3.org/2000/svg" viewBox="0 0 122.11 139.35">
  <defs>
    <style>
      .cls-1 {
        fill: #00636a;
      }
    </style>
  </defs>
  <g id="Layer_1-2" data-name="Layer 1">
    <path class="cls-1" d="m.11,45.13c0-11.35.04-22.71-.04-34.06-.01-1.79-.27-3.54.27-5.31.43-1.41,1.27-2.52,2.25-3.54C4.38.38,6.76.08,9.12.07c13.31-.06,26.62-.14,39.93.05,4.13.06,8.17,1.16,12,2.95,4.35,2.04,7.93,5.06,11.03,8.58,3.06,3.47,4.8,7.69,5.69,12.26.53,2.71.98,5.44.7,8.18-.4,3.84-1.09,7.58-2.71,11.19-1.11,2.47-2.46,4.74-4.18,6.73-2,2.33-4.33,4.34-6.98,6-2.7,1.68-5.57,2.89-8.55,3.91-.74.25-.9.47-.28,1.03,6.45,5.76,12.37,12.06,18.51,18.13,1.13,1.12,2.21,2.29,3.29,3.45.56.61.96.73,1.65.03,6.94-7.05,13.95-14.04,20.88-21.11,2.25-2.29,4.41-4.67,6.84-6.76,1.84-1.58,3.97-2.64,6.46-2.44,3.26.27,5.93,1.54,7.52,4.65.72,1.42,1.16,2.82,1.11,4.41-.02.67-.01,1.31-.56,1.81-.14.13-.27.34-.29.53-.25,2.51-2.05,4.02-3.66,5.64-3.38,3.38-6.67,6.86-10.17,10.12-4.79,4.46-9.34,9.15-13.95,13.78-.72.72-1.51,1.4-2.36,1.97-.63.42-.42.73-.03,1.03,3.22,2.48,5.91,5.52,8.79,8.36,5.31,5.23,10.54,10.54,15.85,15.76,1.67,1.64,3.51,3.11,4.82,5.09,2.88,4.37,1.83,9.88-2.6,12.56-3.11,1.88-6.4,1.84-9.55-.11-1.16-.72-2.1-1.69-3.07-2.66-2.92-2.93-5.8-5.9-8.81-8.74-3.41-3.21-6.62-6.63-9.95-9.92-2.13-2.11-4.14-4.31-6.12-6.55-.46-.52-1.02-.96-1.59-1.37-.48-.35-.93-.3-1.38.2-4.17,4.69-8.88,8.87-13.15,13.47-4.41,4.77-9.1,9.25-13.65,13.88-2.31,2.35-5.21,3.59-8.48,3-1.61-.29-3.49-.59-4.44-2.43-.41-.8-1.49-1.06-1.92-1.96-1.84-3.85-1.3-7.88,1.92-11.09,8.33-8.29,16.71-16.55,25.07-24.81.76-.75,1.56-1.48,2.38-2.17.76-.64.84-1.14.05-1.9-10.84-10.36-21.31-21.08-31.86-31.74-1.52-1.53-2.91-2.04-4.91-1.95-2.94.13-5.89.04-8.83.05-.21,0-.44.05-.62-.03-1.21-.57-1.36.15-1.35,1.08.01,3.56.03,7.13.04,10.69,0,2.51.1,5.04-.4,7.51-.97,4.73-5.47,7.37-10.24,6.5-2.79-.51-4.86-2.07-6.24-4.55-.55-1-.7-2.07-.7-3.18,0-11.35,0-22.7,0-34.06Zm34.36-1.85c4.6,0,9.21,0,13.81,0,.12,0,.25,0,.37,0,3.38.24,6.08-1.34,8.31-3.57,4.82-4.85,5.17-11.63,1.15-17.15-2.63-3.61-6.51-5.01-10.72-5.09-9.41-.17-18.83-.03-28.24-.09-1.23,0-1.49.35-1.48,1.52.03,7.71,0,15.41-.08,23.12,0,.95.16,1.29,1.2,1.28,5.22-.06,10.45-.03,15.67-.02Z"/>
  </g>
</svg>