<?xml version="1.0" encoding="UTF-8"?>
<svg id="Layer_2" data-name="Layer 2" xmlns="http://www.w3.org/2000/svg" viewBox="0 0 135.42 120.29">
  <defs>
    <style>
      .cls-1 {
        fill: #00636a;
      }
    </style>
  </defs>
  <g id="Layer_1-2" data-name="Layer 1">
    <g>
      <path class="cls-1" d="m135.38,67.39c.03-2.53.07-5.06-.05-7.58-.14-2.82-1.32-5.16-4-6.32-1.51-.65-3.17-1.14-4.87-1.01-1.24.1-2.17-.1-2.52-1.44-1.48-3.08-3.35-5.88-5.79-8.29-.53-.56-1.02-1.18-1.61-1.68-.84-.7-1.01-1.48-.58-2.47.38-.89.64-1.83.7-2.8.58-1.99,1.16-3.98,1.75-5.97-.04-.7.18-1.35.36-2.01.7-2.62.15-4.19-1.89-4.9-.53-.19-.88-.98-1.59-.59-.7.39-1.45.36-2.16.26-1.38-.19-2.72.21-4.1.2-1.45-.02-2.92.79-4.35,1.33-3.19,1.19-5.95,3.03-8.21,5.59-.47.54-1.05,1.06-1.8.82-1.52-.5-3.05-.52-4.63-.5-4.39.06-8.78-.06-13.17.02-6.52.12-13.04-.39-19.55.28-.59.06-1.18-.38-1.66-.2-1.53.56-3.17.61-4.71,1.07-4.48,1.32-8.76,3.04-12.58,5.82-3.01,2.19-5.71,4.67-7.87,7.71-.22.24-.47.46-.67.72-2.3,2.98-3.83,6.38-5.28,9.82-.64,1.5-.98,3.05-1.24,4.64-2.06.44-4.16.08-6.23.24-2.51.19-4.44-.73-5.67-2.98.08-.92-.47-1.78-.25-2.72.09-.08.21-.15.25-.25.9-2.36,2.62-3.36,5.13-3.54,2.24-.16,4.42-1.03,5.2-3.34,1.35-3.99-.41-7.63-5.17-7.79-4.25-.14-8.09,1.17-11.27,4.02-1.01.91-2.15,1.79-2.66,3.16-.1.08-.23.14-.28.23-1.71,3.12-2.74,6.35-2.19,10,.45,3.02,1.47,5.74,3.39,8.12.67,1.2,1.66,2.18,2.74,2.93,3.09,2.16,6.55,3.37,10.37,3.36,1.74,0,3.48.01,5.22,0,.59,0,1.02-.01,1.01.81,0,.36.18.78.24,1.19.14.59.3,1.17.41,1.77.77,4.41,2.55,8.41,4.86,12.2,1.29,2.16,2.8,4.14,4.53,5.97,1.57,1.67,3.43,3.07,4.81,4.93-.01.03-.04.06-.03.09.02.05.05.1.07.16-.07.19-.19.38-.19.57.1,4.3-.08,8.59,0,12.88.03,1.76.02,3.66,1.45,5.24,1.5,1.65,3.15,2.83,5.36,2.91,2.98.12,5.97.05,8.95.03,2.62-.02,5.88-2.7,6.38-5.4.53-2.83.39-5.65.41-8.48,0-.77.15-1.06,1-1.05,9.33.03,18.66.03,27.99,0,.87,0,1.16.27,1.14,1.14-.04,2.07-.1,4.15.02,6.21.16,2.73.97,5.16,3.62,6.56,1.12.59,2.3,1.36,3.52,1.2,2.32-.29,4.62-.02,6.93-.11,1.69-.06,3.3.05,4.8-1.05,1.69-1.25,2.91-2.67,3.29-4.81.18-1.03.13-2.05.23-3.06.38-4.2.38-8.39,0-12.59-.06-.63,0-1.11.63-1.59,2.02-1.55,4.14-3.06,5.56-5.21,1.02-1.54,2.33-1.81,4-1.72,2.35.12,4.71.23,7.02-.37,3.2-.83,5.05-3.43,5.28-6.01.48-5.44.17-10.91.23-16.36Zm-35.65,0c-3.53.22-5.89-2.84-5.76-5.55.15-3.13,2.29-5.32,5.34-5.36,3.31-.05,5.99,2.28,5.88,5.6-.09,2.91-1.95,5.12-5.46,5.31Z"/>
      <path class="cls-1" d="m50.35,23.6c.2-.02.4-.09.59-.14,2.11-.53,4.24-.9,6.42-.89,6.09,0,12.18-.02,18.27-.02,5.8,0,11.6,0,17.39.03.54,0,1.14.01.91-.72-.61-1.95-.07-4.13-1.19-5.97-.31-1.51-.8-2.97-1.54-4.31-1.46-2.67-3.79-4.61-5.91-6.71-1.2-.8-2.35-1.7-3.61-2.38C78.59.83,75.18.06,71.7,0c-4.14-.07-8.14.89-11.69,3.06-2.22,1.36-4.37,2.91-5.93,5.1-2.73,2.67-3.99,6.06-4.68,9.71-.52,1.33-.47,2.76-.69,4.14-.24,1.57.04,1.75,1.63,1.58Z"/>
    </g>
  </g>
</svg>