<?xml version="1.0" encoding="UTF-8"?>
<svg id="Layer_2" data-name="Layer 2" xmlns="http://www.w3.org/2000/svg" viewBox="0 0 105.59 120.31">
  <defs>
    <style>
      .cls-1 {
        fill: #00636a;
      }
    </style>
  </defs>
  <g id="Layer_1-2" data-name="Layer 1">
    <path class="cls-1" d="m105.38,110.86c-.35-1.95-1.73-3.21-3.03-4.51-3.3-3.3-6.56-6.66-9.99-9.83-3.53-3.26-6.83-6.75-10.29-10.08-1.03-1.02-2-2.12-3.12-3.03-.65-.53-.5-.73,0-1.15,3.85-3.22,7.27-6.89,10.84-10.41,4.28-4.22,8.53-8.47,12.83-12.68,2.24-2.19,3.34-4.79,2.86-7.89-.41-2.67-1.71-4.73-5.28-5.59-2.7-.65-5.27-.2-7.35,1.91-1.31,1.33-2.71,2.56-4.03,3.87-4.46,4.41-8.97,8.76-13.31,13.28-2.21,2.3-4.48,4.55-6.7,6.85-.51.52-.82.7-1.53.07-.89-.78-1.65-1.69-2.46-2.52-5.56-5.6-11.1-11.22-16.94-16.53-.18-.16-.45-.32-.31-.6.08-.16.31-.3.49-.33,2.42-.36,4.54-1.5,6.64-2.61,3.04-1.6,5.59-3.79,7.57-6.61,2.13-2.42,3.45-5.28,4.37-8.33,1.45-4.79,1.46-9.64.34-14.5-.55-2.37-1.36-4.65-2.75-6.65-.92-1.33-1.54-2.91-2.98-3.86-1.86-2.25-4.13-4.05-6.65-5.49C49.86.93,44.66.05,39.29.05c-10.7.01-21.4-.19-32.1.12C2.99.29.03,3.69.02,7.39-.02,27.45,0,47.51,0,67.57c0,1.16.27,2.26.71,3.31,1.35,3.18,4.95,4.77,7.76,4.36,3.48-.51,6.38-3.76,6.51-7.08.08-1.94.12-3.89.11-5.84,0-2.9-.06-5.8-.11-8.7-.01-.61.02-1,.84-.99,3.29.04,6.58-.04,9.87.08.68.03,1.53.07,2.16.7,2.4,2.42,4.84,4.78,7.25,7.18,2.24,2.23,4.45,4.5,6.69,6.72,5.01,4.98,10.02,9.95,15.05,14.91.45.45.51.81.02,1.24-.56.48-1.2.9-1.66,1.46-1.6,1.95-3.5,3.62-5.32,5.33-4.19,3.96-8.13,8.16-12.36,12.07-1.59,1.47-3.01,3.18-4.6,4.67-2.65,2.49-3.46,5.89-1.65,9.5,1.36,2.72,5,4.25,8,3.68,2.56-.49,4.16-2.31,5.86-3.88,3.75-3.46,7.3-7.14,10.9-10.77,3.62-3.65,7.31-7.25,10.8-11.04,1.11-1.2,1.18-1.13,2.34.03,7.74,7.7,15.49,15.39,23.22,23.1,2.65,2.65,5.65,3.45,9.18,1.92,2.02-.87,4.21-3.64,3.88-5.72.02-.99.13-1.97-.05-2.96ZM54.38,33.18c-.07-.03-.15-.1-.2-.08.05-.02.13.05.2.08,0,0,0,0,0,0Zm-13.62,4.15c-.24-.16-1.19.41-1.9.41-6.91-.02-13.82-.01-20.74-.02-.42,0-.83,0-1.25-.04-1.93-.18-1.98-.19-1.88-2.24.26-5.17.11-10.35.1-15.53,0-1.2-.03-2.4-.13-3.59-.09-1.11.26-1.54,1.45-1.47,5.6.32,11.21.14,16.82.17,1.58,0,3.16-.07,4.74-.09,4.06-.05,7.92.59,11.23,3.17,3.03,2.95,4.04,6.54,3.46,10.65l-.73,2.24c-.26.09-.21.31-.21.51-.84.45-1.03,1.4-1.62,2.06-1.54,1.71-3.42,3.09-5.61,3.51-1.11.21-2.39,1.17-3.76.25Z"/>
  </g>
</svg>