<?xml version="1.0" encoding="UTF-8"?>
<svg id="Layer_2" data-name="Layer 2" xmlns="http://www.w3.org/2000/svg" viewBox="0 0 82.7 120.45">
  <defs>
    <style>
      .cls-1 {
        fill: #00636a;
      }
    </style>
  </defs>
  <g id="Layer_1-2" data-name="Layer 1">
    <path class="cls-1" d="m82.4,15.03c.05-4.78-1.94-8.58-5.64-11.53-2.85-2.37-6.23-3.42-9.85-3.44C51.59,0,36.27.01,20.94,0c-2.76,0-5.53-.06-8.28.35-3.46.51-6.38,1.98-8.6,4.73-.28.09-.74-.05-.67.51l-.05.23c-.25.26-.55.48-.74.78C.63,9.71-.33,13.08.1,16.77c-.02.7-.04,1.41-.04,2.11,0,28.95-.01,57.91.03,86.86,0,5.01,2.57,8.73,6.34,11.79,1.37,1.11,2.97,1.66,4.6,2.14.5.15.82.62,1.45.56,2.34-.22,4.67.21,7.02.18,10.65-.11,21.31-.01,31.96-.04,5.65-.01,11.31.27,16.96-.18,3.83-.31,7.13-1.89,9.81-4.7,2.91-2.78,3.97-6.32,4.19-10.2.1-1.31.28-2.62.28-3.93.02-27.59.01-55.19.01-82.78,0-1.19.1-2.39-.29-3.55Zm-34.88,94.18c-4.23.08-8.46-.02-12.68,0-1.09,0-2.12-.17-3.04-.71-1.62-.96-2.16-2.35-1.71-4.05.45-1.73,1.76-2.84,3.64-2.89,2.44-.07,4.89-.02,7.33-.02,2.44,0,4.89-.26,7.33-.03,2.4.23,3.83,1.35,3.99,3.61.2,2.79-1.97,4.02-4.86,4.08Z"/>
  </g>
</svg>