<?xml version="1.0" encoding="UTF-8"?>
<svg id="Layer_2" data-name="Layer 2" xmlns="http://www.w3.org/2000/svg" viewBox="0 0 104.68 139.18">
  <defs>
    <style>
      .cls-1 {
        fill: #006269;
      }
    </style>
  </defs>
  <g id="Layer_1-2" data-name="Layer 1">
    <path class="cls-1" d="m.01,78.1C.01,63.6-.02,49.09.03,34.59c.02-6.63,3-11.63,8.77-14.9,2.82-1.6,5.91-2.37,9.15-2.36,2.98,0,5.95-.13,8.93.08.48.03.93-.11,1-.64.24-1.86,1.25-3.52,2.2-4.91,2.26-3.3,5.03-6.27,8.67-8.21,2.41-1.28,4.86-2.53,7.58-2.97,3.02-.49,6.01-1.04,9.16-.36,2.02.44,4.14.6,6.04,1.4,5.02,2.11,9.33,5.19,12.59,9.68,1.12,1.54,1.71,3.27,2.55,4.9.37.73.74,1.05,1.57,1.04,2.57-.05,5.14.05,7.71-.04,2.1-.07,4.05.51,6.05,1.01,3.39.84,6.04,2.83,8.4,5.21,1.93,1.95,3.07,4.42,3.69,7.15.62,2.76.6,5.54.6,8.33,0,27.39,0,54.78,0,82.16,0,3.86-1.09,7.47-3.42,10.51-2.29,2.99-5.05,5.58-8.88,6.6-1.71.45-3.38.93-5.22.92-23.72-.06-47.44-.01-71.16-.09-3.52-.01-6.67-1.52-9.36-3.73-3.06-2.52-5.33-5.63-6.23-9.6-.36-1.58-.39-3.17-.39-4.78,0-14.3,0-28.59,0-42.89Zm26.11,2.66c-2.32-.37-3.89,1.04-5.25,2.55-1.18,1.3-1.47,3.18-1.2,4.79.24,1.47,1.34,2.77,2.48,3.89,5.57,5.51,10.97,11.19,16.7,16.52,3.33,3.1,5.97,3.35,9.43.09,4.52-4.26,8.83-8.75,13.23-13.14,6.98-6.97,13.96-13.94,20.93-20.92,2.53-2.54,3.14-5.66,1.18-8.6-1.2-1.81-4.27-3.14-6.36-2.62-2.11.52-3.6,1.95-5.09,3.45-9,9.05-18.05,18.05-27.07,27.07-1.41,1.41-1.58,1.41-3.05-.06-3.52-3.54-7.03-7.09-10.6-10.59-1.45-1.42-2.99-2.8-5.31-2.44ZM60.78,26.48c-.04-2.77-.62-4.96-2.42-6.7-1.76-1.7-4.03-2.74-6.29-2.58-2.46.17-4.99,1.17-6.64,3.26-1.18,1.49-1.84,3.34-1.83,5.29.03,5.13,3.57,8.96,8.54,8.96,2.39,0,4.6-.67,6.26-2.52,1.54-1.71,2.82-3.56,2.38-5.71Z"/>
  </g>
</svg>