<?xml version="1.0" encoding="UTF-8"?>
<svg id="Layer_2" data-name="Layer 2" xmlns="http://www.w3.org/2000/svg" viewBox="0 0 122.15 122.07">
  <defs>
    <style>
      .cls-1 {
        fill: #006269;
      }
    </style>
  </defs>
  <g id="Layer_1-2" data-name="Layer 1">
    <path class="cls-1" d="m17.53,12.15c3.42-.33,6.51-1.61,9.63-2.75,2.41-.88,4.83-1.74,7.25-2.6,3.26-1.16,6.61-1.68,10.04-2.04,2.94-.3,5.84-.15,8.73.1,4.12.36,8.13,1.23,12.08,2.54,3.35,1.11,6.47,2.83,9.89,3.71,2.11.54,4.25.95,6.38,1.42,2.74.61,5.57.68,8.33.68,5.53,0,10.9-1.1,16.13-2.98,4.76-1.71,9.56-3.29,14.21-5.27.04-.02.07-.05.1-.06,1.66-.56,1.78-.51,1.81,1.26.04,2.98.03,5.97.03,8.95,0,26.06-.02,52.12-.03,78.18,0,2.57-.03,2.51-2.41,3.44-4.95,1.93-9.96,3.68-15,5.34-2.58.85-5.2,1.54-7.88,1.97-3.42.55-6.84.48-10.29.3-2.66-.14-5.23-.76-7.86-1.03-1-.1-1.84-.58-2.77-.83-1.94-.5-3.96-.81-5.76-1.74-2.98-1.54-6.16-2.54-9.4-3.26-2.41-.53-4.83-1.08-7.33-1.23-1.39-.08-2.78-.23-4.18-.22-4.31.02-8.58.43-12.77,1.52-1.64.43-1.99.18-1.79-1.52.47-3.88.09-7.76.23-11.63.03-.99-.33-1.93-.27-2.94.04-.6.22-.91.77-1.04,4.39-1.09,8.81-2.12,13.36-1.97,3.07.1,6.12.59,9.16,1.1,3.39.57,6.62,1.61,9.85,2.67,1.59.52,3.06,1.39,4.64,1.99,2.3.87,4.7,1.3,7.07,1.9,3.08.78,6.27.73,9.4,1.21,1.41.22,2.87-.14,4.29-.27,3.31-.29,6.59-.92,9.78-1.93.74-.23,1.37-.43,1.4-1.5.51-16.64.07-33.28.22-49.92.01-1.54-.61-3.07-.08-4.63.17-.51-.29-.35-.54-.39-1.44-.22-2.73.47-4.06.79-3.56.86-7.14,1.25-10.8,1.1-5.59-.22-11.06-1.04-16.35-2.89-2.31-.81-4.53-1.86-6.83-2.71-2.81-1.03-5.73-1.8-8.68-2.19-2.6-.34-5.2-.81-7.84-.87-5.95-.13-11.65,1.1-17.2,3.13-3.27,1.2-6.52,2.47-9.79,3.65-1.19.43-2.57.77-3.89.9-1.04.11-1.11.63-1.04,1.4.34,3.55.15,7.11.15,10.67.02,22.5,0,44.99.04,67.49,0,1.8.1,3.69-.18,5.39-.5,3.09-2.23,5.66-5.42,6.84-5.06,1.87-9.41-.42-11.59-4.69-.31-.6-.41-1.29-.41-2,0-11.48,0-22.95,0-34.43C.05,56.43.07,32.56,0,8.7-.01,5.09,1.49,2.47,4.59,1.01c3.51-1.65,7.07-1.33,10.06,1.36,1.84,1.66,3,3.77,2.89,6.39-.05,1.11,0,2.23,0,3.38Z"/>
  </g>
</svg>