<!DOCTYPE svg PUBLIC "-//W3C//DTD SVG 1.1//EN" "http://www.w3.org/Graphics/SVG/1.1/DTD/svg11.dtd">

<!-- Uploaded to: SVG Repo, www.svgrepo.com, Transformed by: SVG Repo Mixer Tools -->
<svg fill="#006269" height="800px" width="800px" version="1.1" id="Layer_1" xmlns="http://www.w3.org/2000/svg" xmlns:xlink="http://www.w3.org/1999/xlink" viewBox="0 0 218.181 218.181" xml:space="preserve" stroke="#006269">

<g id="SVGRepo_bgCarrier" stroke-width="0"/>

<g id="SVGRepo_tracerCarrier" stroke-linecap="round" stroke-linejoin="round"/>

<g id="SVGRepo_iconCarrier"> <g> <g> <g> <path d="M169.697,64.646H48.484c-6.684,0-12.121,5.437-12.121,12.119v129.297c0,6.682,5.437,12.119,12.121,12.119h121.212 c6.684,0,12.121-5.437,12.121-12.119V76.766C181.818,70.084,176.38,64.646,169.697,64.646z M173.737,206.063 c0,2.227-1.811,4.038-4.04,4.038H48.484c-2.229,0-4.04-1.811-4.04-4.038V76.766c0-2.227,1.811-4.038,4.04-4.038h121.212 c2.229,0,4.04,1.811,4.04,4.038V206.063z"/> <path d="M52.533,56.566h113.115c6.688,0,12.129-5.433,12.129-12.113v-8.097c0-6.68-5.441-12.113-12.129-12.113h-28.377 C136.233,10.705,124.91,0,111.111,0S85.989,10.705,84.95,24.242H52.533c-6.688,0-12.129,5.433-12.129,12.113v8.097 C40.404,51.133,45.845,56.566,52.533,56.566z M111.111,8.081c9.334,0,16.958,7.095,17.978,16.162H93.134 C94.154,15.176,101.776,8.081,111.111,8.081z M48.484,36.356c0-2.223,1.815-4.032,4.048-4.032h113.115 c2.234,0,4.048,1.809,4.048,4.032v8.097c0,2.223-1.815,4.033-4.048,4.033H52.533c-2.234,0-4.048-1.809-4.048-4.032V36.356z"/> <path d="M109.091,92.929c-26.736,0-48.485,21.751-48.485,48.485s21.749,48.485,48.485,48.485s48.485-21.751,48.485-48.485 S135.827,92.929,109.091,92.929z M109.091,181.818c-22.278,0-40.404-18.124-40.404-40.404c0-22.28,18.126-40.404,40.404-40.404 s40.404,18.124,40.404,40.404C149.495,163.694,131.369,181.818,109.091,181.818z"/> <path d="M121.211,113.131H96.97v16.162H80.807v24.242H96.97v16.162h24.242v-16.162h16.162v-24.242h-16.162 C121.212,129.293,121.212,113.131,121.211,113.131z M129.293,137.374v8.081H113.13v16.162h-8.081v-16.162H88.888v-8.081h16.162 v-16.162h8.081v16.162H129.293z"/> </g> </g> </g> </g>

</svg>